<?xml version="1.0" standalone="no"?>
<!DOCTYPE svg PUBLIC "-//W3C//DTD SVG 20010904//EN"
 "http://www.w3.org/TR/2001/REC-SVG-20010904/DTD/svg10.dtd">
<svg version="1.0" xmlns="http://www.w3.org/2000/svg"
 width="1004.000000pt" height="1004.000000pt" viewBox="0 0 1004.000000 1004.000000"
 preserveAspectRatio="xMidYMid meet">
<metadata>
Created by potrace 1.14, written by Peter Selinger 2001-2017
</metadata>
<g transform="translate(0.000000,1004.000000) scale(0.100000,-0.100000)"
fill="#000000" stroke="none">
<path d="M3760 7479 c-315 -15 -731 -113 -999 -235 -41 -19 -81 -34 -90 -34
-44 0 -347 -188 -496 -307 -121 -97 -154 -131 -134 -137 8 -3 80 -21 162 -42
l147 -37 58 50 c138 120 352 263 520 347 95 48 286 126 308 126 9 0 58 13 108
29 386 123 895 158 1341 90 187 -28 473 -91 640 -141 39 -11 77 -23 85 -25 8
-2 2 4 -15 13 -16 10 -57 25 -90 35 -33 9 -109 35 -170 57 -435 161 -908 233
-1375 211z"/>
<path d="M452 7366 c-11 -24 -9 -25 157 -90 92 -36 174 -66 183 -66 19 0 101
-31 458 -172 140 -55 261 -105 268 -111 18 -14 14 -62 -7 -81 -24 -22 -2 -29
-361 114 -482 193 -631 250 -645 250 -7 0 -33 9 -58 19 l-45 19 -10 -23 c-10
-22 -6 -25 176 -98 103 -42 302 -121 442 -175 285 -111 418 -171 438 -195 23
-27 11 -52 -26 -55 -43 -4 -86 10 -387 130 -137 54 -308 122 -380 151 -71 28
-170 68 -220 88 -82 34 -91 36 -103 21 -7 -9 -11 -21 -9 -27 3 -10 308 -140
457 -194 169 -62 596 -244 615 -262 15 -15 17 -24 9 -46 -20 -58 -37 -54 -334
70 -151 64 -327 137 -390 163 -63 25 -178 73 -254 106 -108 46 -141 56 -148
46 -4 -7 -7 -19 -5 -27 2 -14 922 -482 1062 -540 39 -16 101 -35 137 -42 59
-11 76 -10 130 5 35 9 92 34 128 55 113 66 127 65 400 -41 324 -126 570 -194
855 -235 154 -21 569 -24 750 -4 303 34 626 118 887 231 104 46 525 257 638
320 193 108 390 186 612 245 267 69 450 92 818 102 473 12 750 -31 925 -142
60 -38 70 -57 82 -155 23 -179 151 -337 335 -411 125 -52 252 -73 438 -73 123
-1 186 4 248 17 197 42 363 128 442 229 41 51 42 55 37 108 -12 130 -88 270
-221 408 -118 122 -195 178 -352 255 -189 94 -270 120 -374 120 -47 0 -110 -6
-140 -13 -109 -25 -258 -120 -304 -191 -24 -38 -65 -59 -116 -59 -40 0 -265
42 -400 75 -105 25 -373 40 -715 40 -387 0 -550 -13 -747 -59 -281 -67 -441
-133 -878 -365 -441 -234 -608 -306 -847 -365 -173 -42 -227 -51 -438 -75
-554 -63 -791 -50 -1228 69 -153 41 -346 112 -428 157 -74 40 -104 78 -129
163 -43 146 -91 209 -203 263 -65 32 -389 143 -527 181 -192 52 -517 145 -671
192 -10 3 -20 -5 -27 -20z"/>
<path d="M210 6390 l0 -80 368 1 367 1 -164 79 -163 79 -204 0 -204 0 0 -80z"/>
<path d="M5175 6392 l-139 -77 1308 -3 c720 -1 1311 0 1314 3 2 2 -9 21 -25
42 -16 21 -40 55 -52 76 l-23 37 -1121 -1 -1122 0 -140 -77z"/>
<path d="M9364 6423 c-15 -27 -38 -63 -52 -80 l-24 -33 236 0 236 0 0 80 0 80
-184 0 -184 0 -28 -47z"/>
<path d="M1910 5846 c-65 -18 -100 -39 -142 -83 -63 -65 -82 -121 -86 -255
l-4 -117 -102 -3 -101 -3 0 -65 0 -65 100 -5 100 -5 3 -508 2 -508 78 3 77 3
5 505 5 505 173 3 172 2 0 70 0 70 -175 0 -175 0 0 93 c1 144 38 204 139 226
61 13 149 0 196 -29 l33 -21 27 58 c18 40 24 63 17 73 -5 8 -35 26 -68 39 -71
29 -204 38 -274 17z"/>
<path d="M6167 5843 c-4 -3 -7 -150 -7 -326 l0 -320 -62 60 c-66 62 -142 104
-224 124 -72 17 -228 15 -303 -5 -197 -51 -344 -204 -397 -416 -24 -95 -15
-271 18 -361 66 -178 186 -294 368 -355 77 -26 263 -26 340 0 83 28 149 69
210 131 l55 56 5 -98 5 -98 75 0 75 0 3 808 2 807 -78 0 c-43 0 -82 -3 -85 -7z
m-233 -637 c149 -73 230 -215 228 -401 -1 -192 -105 -349 -272 -411 -64 -24
-219 -25 -287 -1 -112 39 -207 136 -248 252 -42 118 -27 303 32 403 82 141
205 204 381 198 83 -3 100 -7 166 -40z"/>
<path d="M6790 5040 l0 -811 78 3 77 3 3 808 2 807 -80 0 -80 0 0 -810z"/>
<path d="M2818 5390 c-214 -26 -378 -153 -459 -356 -27 -67 -32 -95 -36 -189
-9 -191 43 -331 167 -456 222 -224 620 -225 844 -3 104 104 155 225 163 389 7
139 -6 208 -57 312 -108 220 -348 336 -622 303z m275 -178 c154 -72 241 -216
241 -402 0 -269 -190 -454 -448 -437 -182 11 -317 111 -373 277 -27 82 -25
265 5 340 46 117 136 201 256 240 94 31 231 24 319 -18z"/>
<path d="M4238 5390 c-213 -26 -378 -154 -459 -356 -26 -66 -32 -96 -36 -184
-7 -134 7 -204 59 -310 103 -211 318 -332 563 -316 145 9 270 61 367 154 119
113 168 225 175 402 6 139 -10 220 -64 322 -108 206 -346 319 -605 288z m265
-178 c154 -72 241 -217 241 -402 0 -266 -191 -455 -443 -437 -178 12 -312 113
-368 277 -27 82 -25 265 5 340 46 117 136 201 256 240 93 31 222 23 309 -18z"/>
<path d="M7775 5389 c-153 -19 -318 -135 -392 -274 -54 -102 -68 -165 -67
-305 0 -103 4 -137 22 -190 62 -183 183 -303 367 -366 70 -24 96 -28 205 -28
145 -1 224 18 325 79 64 39 125 92 125 109 -1 6 -21 33 -45 60 l-44 49 -46
-41 c-176 -155 -468 -147 -631 16 -51 51 -102 149 -110 215 l-7 47 477 0 476
0 0 78 c0 156 -56 295 -161 400 -123 123 -297 176 -494 151z m267 -171 c115
-53 208 -175 224 -292 l7 -46 -398 0 -398 0 7 40 c24 148 127 270 269 316 27
9 76 13 137 11 78 -2 105 -8 152 -29z"/>
<path d="M210 3650 l0 -80 4780 0 4781 0 -3 78 -3 77 -4777 3 -4778 2 0 -80z"/>
</g>
</svg>
