<?xml version="1.0" standalone="no"?>
<!DOCTYPE svg PUBLIC "-//W3C//DTD SVG 20010904//EN"
 "http://www.w3.org/TR/2001/REC-SVG-20010904/DTD/svg10.dtd">
<svg version="1.0" xmlns="http://www.w3.org/2000/svg"
 width="1004.000000pt" height="1004.000000pt" viewBox="0 0 1004.000000 1004.000000"
 preserveAspectRatio="xMidYMid meet">
<metadata>
Created by potrace 1.14, written by Peter Selinger 2001-2017
</metadata>
<g transform="translate(0.000000,1004.000000) scale(0.100000,-0.100000)"
fill="#000000" stroke="none">
<path d="M3680 7473 c-88 -6 -367 -55 -475 -84 -133 -34 -392 -122 -457 -155
-26 -13 -55 -24 -64 -24 -22 0 -159 -74 -283 -152 -159 -100 -372 -271 -357
-286 4 -3 73 -22 154 -42 l149 -36 39 34 c78 67 261 201 353 256 158 96 407
213 492 231 19 4 86 22 149 40 253 72 456 103 732 112 307 9 634 -28 975 -112
80 -20 147 -34 150 -32 5 5 -169 67 -287 102 -373 111 -672 156 -1025 153
-110 -1 -220 -3 -245 -5z"/>
<path d="M456 7364 c-4 -9 -5 -18 -3 -20 9 -9 306 -122 334 -127 31 -6 165
-57 567 -215 182 -72 201 -87 178 -137 -23 -50 -42 -46 -400 98 -342 137 -587
231 -676 261 -40 13 -51 14 -58 4 -4 -7 -8 -16 -8 -19 0 -6 323 -140 417 -173
82 -29 472 -186 543 -218 86 -40 110 -60 110 -93 0 -57 -63 -41 -418 101 -130
53 -250 100 -265 105 -16 4 -119 45 -229 90 -192 79 -201 82 -214 64 -12 -16
-12 -20 2 -28 18 -10 213 -90 374 -153 241 -95 656 -266 678 -280 44 -28 18
-104 -36 -104 -12 0 -83 26 -159 59 -76 32 -205 87 -288 120 -258 106 -286
118 -455 190 -143 60 -166 67 -171 53 -4 -9 -2 -22 5 -29 23 -25 1034 -524
1109 -548 134 -43 222 -31 346 45 95 59 128 55 386 -45 349 -136 575 -198 856
-236 136 -18 189 -20 449 -16 382 6 517 25 845 119 77 23 199 64 270 93 141
57 515 240 713 349 343 189 732 303 1146 336 169 13 578 13 747 -1 240 -19
437 -85 518 -172 18 -20 25 -43 31 -99 14 -139 82 -259 194 -346 72 -56 142
-87 259 -117 152 -38 287 -50 425 -36 258 26 453 106 567 233 42 47 45 54 45
107 -1 126 -90 292 -234 436 -112 112 -187 165 -339 239 -174 85 -246 108
-352 114 -102 5 -185 -12 -273 -54 -65 -32 -169 -117 -185 -151 -28 -63 -111
-67 -347 -18 -300 63 -526 85 -885 85 -638 1 -944 -76 -1517 -377 -451 -237
-539 -279 -738 -356 -157 -60 -373 -107 -630 -136 -609 -69 -849 -53 -1325 86
-126 36 -316 110 -375 145 -70 42 -90 69 -116 158 -57 189 -117 242 -369 328
-181 61 -410 132 -427 132 -8 0 -66 15 -129 34 -240 72 -465 136 -476 136 -6
0 -14 -7 -17 -16z"/>
<path d="M210 6395 l0 -75 358 1 357 1 -154 74 -154 74 -203 0 -204 0 0 -75z"/>
<path d="M5190 6394 l-135 -74 1298 0 c1282 0 1298 0 1287 19 -5 11 -14 23
-20 26 -5 3 -22 28 -37 55 l-28 50 -1115 -1 -1115 0 -135 -75z"/>
<path d="M9361 6408 c-17 -29 -38 -63 -47 -75 l-16 -23 231 0 231 0 0 75 0 75
-184 0 -184 0 -31 -52z"/>
<path d="M1928 5847 c-115 -26 -199 -106 -233 -220 -9 -29 -15 -90 -15 -144
l0 -93 -100 0 -100 0 0 -70 0 -70 100 0 100 0 0 -505 0 -506 78 3 77 3 2 500
2 500 171 3 170 2 0 70 0 70 -175 0 -175 0 0 88 c0 77 4 96 28 143 38 75 89
102 187 97 47 -2 85 -11 115 -25 49 -25 49 -25 76 44 21 53 13 64 -64 93 -71
27 -170 33 -244 17z"/>
<path d="M6170 5520 c0 -181 -2 -330 -4 -330 -3 0 -29 24 -58 53 -103 103
-215 147 -373 147 -168 0 -304 -53 -408 -157 -108 -108 -160 -246 -160 -423 0
-181 48 -305 163 -420 111 -112 233 -160 405 -160 158 0 271 45 372 147 l63
64 0 -100 0 -101 75 0 75 0 0 805 0 805 -75 0 -75 0 0 -330z m-295 -285 c198
-55 322 -271 287 -502 -17 -107 -60 -191 -136 -259 -86 -78 -144 -98 -281 -98
-137 0 -195 20 -281 98 -69 62 -107 127 -129 217 -83 356 196 638 540 544z"/>
<path d="M6790 5045 l0 -805 75 0 75 0 0 805 0 805 -75 0 -75 0 0 -805z"/>
<path d="M2746 5375 c-141 -36 -279 -141 -349 -266 -127 -227 -86 -540 95
-718 109 -108 244 -161 414 -161 119 0 183 13 269 54 143 68 238 176 292 331
24 70 27 95 27 200 0 103 -4 130 -26 192 -63 176 -168 285 -335 350 -58 22
-87 26 -198 29 -92 3 -147 -1 -189 -11z m289 -137 c207 -52 333 -268 297 -506
-27 -172 -129 -296 -284 -343 -58 -18 -87 -21 -162 -16 -117 6 -185 32 -259
98 -70 62 -104 118 -128 211 -93 355 186 644 536 556z"/>
<path d="M4166 5375 c-193 -49 -353 -206 -402 -396 -21 -79 -23 -243 -5 -319
48 -199 217 -369 412 -415 81 -19 226 -19 307 0 185 44 335 182 396 365 90
274 -6 560 -237 704 -78 48 -158 69 -287 72 -88 3 -143 -1 -184 -11z m279
-137 c206 -52 333 -268 297 -505 -36 -233 -209 -374 -441 -360 -114 6 -182 33
-257 101 -69 62 -107 127 -129 217 -82 351 190 632 530 547z"/>
<path d="M7710 5371 c-91 -25 -144 -56 -221 -129 -75 -70 -127 -158 -154 -262
-23 -86 -24 -245 -2 -329 54 -203 213 -357 418 -406 75 -17 236 -20 311 -4 83
18 188 71 246 125 l52 49 -43 49 -44 50 -44 -36 c-121 -98 -288 -133 -444 -93
-163 43 -286 175 -311 336 l-7 39 479 2 479 3 3 43 c5 65 -14 169 -43 241 -69
169 -196 283 -362 326 -78 21 -231 18 -313 -4z m316 -142 c126 -47 225 -172
247 -311 l6 -38 -406 0 -405 0 7 43 c20 116 109 239 213 291 96 49 232 54 338
15z"/>
<path d="M212 3648 l3 -73 4773 -3 4772 -2 0 75 0 75 -4775 0 -4776 0 3 -72z"/>
</g>
</svg>
